# xmcd CD database file
#
# Track frame offsets:
#	150
#	20070
#	34977
#	55085
#	71625
#	88977
#	105129
#	124172
#	143255
#	158540
#	178422
#	200710
#
# Disc length: 2909 seconds
#
# Revision: 2
# Processed by: cddbd v1.5.1PL0 Copyright (c) Steve Scherf et al.
# Submitted via: CDex 1.51
#
DISCID=a40b5b0c
DTITLE=Jessica Simpson - Sweet Kisses
DYEAR=1900
DGENRE=Blues
TTITLE0=I Wanna Love You Forever
TTITLE1=I Think I'm In Love With You
TTITLE2=Where You Are
TTITLE3=Final Heartbreak
TTITLE4=Women In Me
TTITLE5=I've Got My Eyes On You
TTITLE6=Betcha She Don't Love You
TTITLE7=My Wonderful
TTITLE8=Sweet Kisses
TTITLE9=You Faith in Me
TTITLE10=Heart Of Innocence
TTITLE11=Did You Ever Love Somebody
EXTD=
EXTT0=
EXTT1=
EXTT2=
EXTT3=
EXTT4=
EXTT5=
EXTT6=
EXTT7=
EXTT8=
EXTT9=
EXTT10=
EXTT11=
PLAYORDER=
